<mxfile host="app.diagrams.net" modified="2020-08-04T04:09:43.180Z" agent="5.0 (Macintosh; Intel Mac OS X 10_14_2) AppleWebKit/537.36 (KHTML, like Gecko) Chrome/84.0.4147.89 Safari/537.36" etag="vsmm4yA3Rg14P7qn830t" version="13.5.9" type="github">
  <diagram id="X2rm5kDJfhb_xJS3kBo7" name="Page-1">
    <mxGraphModel dx="565" dy="330" grid="1" gridSize="10" guides="1" tooltips="1" connect="1" arrows="1" fold="1" page="1" pageScale="1" pageWidth="827" pageHeight="1169" math="0" shadow="0">
      <root>
        <mxCell id="0" />
        <mxCell id="1" parent="0" />
        <mxCell id="Jw7iDx7aTzpP24MQw51J-1" value="创建集群" style="rounded=0;whiteSpace=wrap;html=1;" vertex="1" parent="1">
          <mxGeometry x="130" y="250" width="80" height="60" as="geometry" />
        </mxCell>
        <mxCell id="Jw7iDx7aTzpP24MQw51J-2" value="" style="rounded=0;whiteSpace=wrap;html=1;" vertex="1" parent="1">
          <mxGeometry x="310" y="250" width="120" height="60" as="geometry" />
        </mxCell>
      </root>
    </mxGraphModel>
  </diagram>
</mxfile>
